<mxfile host="app.diagrams.net" modified="2020-11-03T05:28:38.671Z" agent="5.0 (Windows NT 6.1; Win64; x64) AppleWebKit/537.36 (KHTML, like Gecko) Chrome/86.0.4240.111 Safari/537.36" etag="1UPFB-tcPNMHBEddFOex" version="13.8.8" type="github">
  <diagram id="_fstDtws6zn0y8IbCJU2" name="Page-1">
    <mxGraphModel dx="1102" dy="614" grid="1" gridSize="10" guides="1" tooltips="1" connect="1" arrows="1" fold="1" page="1" pageScale="1" pageWidth="1100" pageHeight="850" math="0" shadow="0">
      <root>
        <mxCell id="0" />
        <mxCell id="1" parent="0" />
        <mxCell id="UBhi01ws65lpK4pcav3F-37" value="&lt;span style=&quot;font-size: 20px&quot;&gt;Merging the Branch with the Master Branch&lt;/span&gt;" style="text;html=1;strokeColor=none;fillColor=none;align=center;verticalAlign=middle;whiteSpace=wrap;rounded=0;" parent="1" vertex="1">
          <mxGeometry x="780" y="245" width="190" height="180" as="geometry" />
        </mxCell>
        <mxCell id="UBhi01ws65lpK4pcav3F-20" value="" style="endArrow=classic;html=1;strokeWidth=7;" parent="1" edge="1">
          <mxGeometry width="50" height="50" relative="1" as="geometry">
            <mxPoint x="30" y="440" as="sourcePoint" />
            <mxPoint x="1050" y="440" as="targetPoint" />
          </mxGeometry>
        </mxCell>
        <mxCell id="UBhi01ws65lpK4pcav3F-21" value="&lt;span style=&quot;font-size: 20px&quot;&gt;Master Branch&lt;br&gt;(This is the main code.&lt;br&gt;This should be working)&lt;/span&gt;" style="text;html=1;strokeColor=none;fillColor=none;align=center;verticalAlign=middle;whiteSpace=wrap;rounded=0;" parent="1" vertex="1">
          <mxGeometry y="410" width="225" height="135" as="geometry" />
        </mxCell>
        <mxCell id="UBhi01ws65lpK4pcav3F-24" value="" style="endArrow=classic;html=1;strokeWidth=3;" parent="1" edge="1">
          <mxGeometry width="50" height="50" relative="1" as="geometry">
            <mxPoint x="120" y="440" as="sourcePoint" />
            <mxPoint x="120" y="400" as="targetPoint" />
          </mxGeometry>
        </mxCell>
        <mxCell id="UBhi01ws65lpK4pcav3F-27" value="" style="endArrow=classic;html=1;strokeWidth=3;" parent="1" edge="1">
          <mxGeometry width="50" height="50" relative="1" as="geometry">
            <mxPoint x="200" y="440" as="sourcePoint" />
            <mxPoint x="200" y="400" as="targetPoint" />
          </mxGeometry>
        </mxCell>
        <mxCell id="UBhi01ws65lpK4pcav3F-28" value="" style="endArrow=classic;html=1;strokeWidth=3;" parent="1" edge="1">
          <mxGeometry width="50" height="50" relative="1" as="geometry">
            <mxPoint x="280" y="440" as="sourcePoint" />
            <mxPoint x="280" y="400" as="targetPoint" />
          </mxGeometry>
        </mxCell>
        <mxCell id="UBhi01ws65lpK4pcav3F-30" value="" style="endArrow=classic;html=1;strokeWidth=3;" parent="1" edge="1">
          <mxGeometry width="50" height="50" relative="1" as="geometry">
            <mxPoint x="1000" y="440" as="sourcePoint" />
            <mxPoint x="1000" y="400" as="targetPoint" />
          </mxGeometry>
        </mxCell>
        <mxCell id="UBhi01ws65lpK4pcav3F-31" value="&lt;span style=&quot;font-size: 20px&quot;&gt;Commit&lt;/span&gt;" style="text;html=1;strokeColor=none;fillColor=none;align=center;verticalAlign=middle;whiteSpace=wrap;rounded=0;" parent="1" vertex="1">
          <mxGeometry x="60" y="360" width="120" height="50" as="geometry" />
        </mxCell>
        <mxCell id="UBhi01ws65lpK4pcav3F-32" value="&lt;span style=&quot;font-size: 20px&quot;&gt;Latest Commit&lt;/span&gt;" style="text;html=1;strokeColor=none;fillColor=none;align=center;verticalAlign=middle;whiteSpace=wrap;rounded=0;" parent="1" vertex="1">
          <mxGeometry x="940" y="350" width="120" height="50" as="geometry" />
        </mxCell>
        <mxCell id="UBhi01ws65lpK4pcav3F-33" value="&lt;span style=&quot;font-size: 20px&quot;&gt;Commit&lt;/span&gt;" style="text;html=1;strokeColor=none;fillColor=none;align=center;verticalAlign=middle;whiteSpace=wrap;rounded=0;" parent="1" vertex="1">
          <mxGeometry x="140" y="360" width="120" height="50" as="geometry" />
        </mxCell>
        <mxCell id="UBhi01ws65lpK4pcav3F-34" value="&lt;span style=&quot;font-size: 20px&quot;&gt;Commit&lt;/span&gt;" style="text;html=1;strokeColor=none;fillColor=none;align=center;verticalAlign=middle;whiteSpace=wrap;rounded=0;" parent="1" vertex="1">
          <mxGeometry x="220" y="360" width="120" height="50" as="geometry" />
        </mxCell>
        <mxCell id="UBhi01ws65lpK4pcav3F-35" value="" style="endArrow=classic;html=1;strokeWidth=3;" parent="1" edge="1">
          <mxGeometry width="50" height="50" relative="1" as="geometry">
            <mxPoint x="280" y="440" as="sourcePoint" />
            <mxPoint x="850" y="440" as="targetPoint" />
            <Array as="points">
              <mxPoint x="370" y="320" />
              <mxPoint x="780" y="320" />
            </Array>
          </mxGeometry>
        </mxCell>
        <mxCell id="UBhi01ws65lpK4pcav3F-36" value="&lt;span style=&quot;font-size: 20px&quot;&gt;New Branch&lt;br&gt;(This contains the code in past.&lt;br&gt;It can be updated by Master Branch.&lt;br&gt;Now we can work on this branch and make commits)&lt;/span&gt;" style="text;html=1;strokeColor=none;fillColor=none;align=center;verticalAlign=middle;whiteSpace=wrap;rounded=0;" parent="1" vertex="1">
          <mxGeometry x="405" y="170" width="340" height="160" as="geometry" />
        </mxCell>
        <mxCell id="UBhi01ws65lpK4pcav3F-39" value="" style="endArrow=classic;html=1;strokeWidth=3;" parent="1" edge="1">
          <mxGeometry width="50" height="50" relative="1" as="geometry">
            <mxPoint x="510" y="540" as="sourcePoint" />
            <mxPoint x="770" y="660" as="targetPoint" />
            <Array as="points">
              <mxPoint x="510" y="660" />
            </Array>
          </mxGeometry>
        </mxCell>
        <mxCell id="UBhi01ws65lpK4pcav3F-40" value="" style="endArrow=classic;html=1;strokeWidth=3;" parent="1" edge="1">
          <mxGeometry width="50" height="50" relative="1" as="geometry">
            <mxPoint x="680" y="660" as="sourcePoint" />
            <mxPoint x="860" y="780" as="targetPoint" />
            <Array as="points">
              <mxPoint x="680" y="780" />
            </Array>
          </mxGeometry>
        </mxCell>
        <mxCell id="UBhi01ws65lpK4pcav3F-41" value="&lt;font style=&quot;font-size: 20px&quot;&gt;We use branches to not mess up the main branch (Code) which should be working.&lt;br&gt;There can be countless branches&lt;br&gt;&lt;/font&gt;" style="text;html=1;strokeColor=none;fillColor=none;align=center;verticalAlign=middle;whiteSpace=wrap;rounded=0;" parent="1" vertex="1">
          <mxGeometry x="70" y="680" width="400" height="120" as="geometry" />
        </mxCell>
        <mxCell id="tV0F305oZWYiZmubholA-2" value="" style="endArrow=classic;html=1;strokeWidth=3;" parent="1" edge="1">
          <mxGeometry width="50" height="50" relative="1" as="geometry">
            <mxPoint x="340" y="440" as="sourcePoint" />
            <mxPoint x="730" y="540" as="targetPoint" />
            <Array as="points">
              <mxPoint x="340" y="540" />
            </Array>
          </mxGeometry>
        </mxCell>
        <mxCell id="tV0F305oZWYiZmubholA-3" value="&lt;span style=&quot;font-size: 20px&quot;&gt;Branch 1&lt;/span&gt;" style="text;html=1;strokeColor=none;fillColor=none;align=center;verticalAlign=middle;whiteSpace=wrap;rounded=0;" parent="1" vertex="1">
          <mxGeometry x="360" y="530" width="110" height="50" as="geometry" />
        </mxCell>
        <mxCell id="tV0F305oZWYiZmubholA-4" value="&lt;span style=&quot;font-size: 20px&quot;&gt;Branch 3&lt;/span&gt;" style="text;html=1;strokeColor=none;fillColor=none;align=center;verticalAlign=middle;whiteSpace=wrap;rounded=0;" parent="1" vertex="1">
          <mxGeometry x="700" y="780" width="110" height="50" as="geometry" />
        </mxCell>
        <mxCell id="tV0F305oZWYiZmubholA-5" value="&lt;span style=&quot;font-size: 20px&quot;&gt;Branch 2&lt;/span&gt;" style="text;html=1;strokeColor=none;fillColor=none;align=center;verticalAlign=middle;whiteSpace=wrap;rounded=0;" parent="1" vertex="1">
          <mxGeometry x="520" y="650" width="110" height="50" as="geometry" />
        </mxCell>
      </root>
    </mxGraphModel>
  </diagram>
</mxfile>
